<svg xmlns="http://www.w3.org/2000/svg" xmlns:xlink="http://www.w3.org/1999/xlink" preserveAspectRatio="xMidYMid" width="293.406" height="71.031" viewBox="0 0 293.406 71.031">
  <defs>
    <style>
      .cls-1 {
        fill: #9ba6ab;
        fill-rule: evenodd;
      }
    </style>
  </defs>
  <path d="M292.336,26.842 L283.445,26.842 C282.689,26.842 282.365,26.374 282.365,25.510 C282.365,24.754 282.689,24.322 283.445,24.322 L285.353,24.322 C286.108,24.322 286.432,23.998 286.432,23.242 L286.432,5.245 C286.432,4.489 286.108,4.165 285.353,4.165 L283.445,4.165 C282.689,4.165 282.365,3.733 282.365,2.977 C282.365,2.113 282.689,1.645 283.445,1.645 L288.232,1.645 C288.988,1.645 289.312,2.113 289.312,2.977 L289.312,23.242 C289.312,23.998 289.636,24.322 290.392,24.322 L292.336,24.322 C293.092,24.322 293.415,24.754 293.415,25.618 C293.415,26.374 293.092,26.842 292.336,26.842 ZM269.227,26.842 L268.579,26.842 C267.823,26.842 267.499,26.518 267.499,25.762 L267.499,25.042 C267.499,24.790 267.427,24.682 267.355,24.682 C267.283,24.682 267.211,24.790 267.175,24.862 C266.671,25.942 264.944,26.986 262.784,26.986 C257.781,26.986 257.781,21.983 257.781,21.983 L257.781,13.704 C257.781,13.704 257.781,8.700 262.784,8.700 C264.944,8.700 266.671,9.744 267.175,10.824 C267.211,10.896 267.283,11.004 267.355,11.004 C267.427,11.004 267.499,10.896 267.499,10.644 L267.499,9.924 C267.499,9.168 267.823,8.844 268.579,8.844 L269.227,8.844 C269.983,8.844 270.307,9.168 270.307,9.924 L270.307,25.762 C270.307,26.518 269.983,26.842 269.227,26.842 ZM267.499,14.783 C267.499,12.588 265.664,11.508 263.864,11.508 C260.588,11.508 260.588,13.704 260.588,13.704 L260.588,21.983 C260.588,21.983 260.588,24.178 263.864,24.178 C265.664,24.178 267.499,23.098 267.499,20.903 L267.499,14.783 ZM242.447,5.676 C240.936,5.676 239.712,4.453 239.712,2.941 C239.712,1.429 240.936,0.169 242.447,0.169 C243.959,0.169 245.219,1.429 245.219,2.941 C245.219,4.453 243.959,5.676 242.447,5.676 ZM244.427,9.924 L244.427,25.762 C244.427,26.518 244.103,26.842 243.347,26.842 L242.627,26.842 C241.871,26.842 241.547,26.518 241.547,25.762 L241.547,12.444 C241.547,11.688 241.223,11.364 240.468,11.364 L238.560,11.364 C237.804,11.364 237.480,10.932 237.480,10.176 C237.480,9.312 237.804,8.844 238.560,8.844 L243.347,8.844 C244.103,8.844 244.427,9.168 244.427,9.924 ZM223.860,11.508 L222.024,11.508 C220.224,11.508 218.497,12.588 218.497,14.783 L218.497,23.242 C218.497,23.998 218.821,24.322 219.577,24.322 L221.772,24.322 C222.528,24.322 222.852,24.754 222.852,25.618 C222.852,26.374 222.528,26.842 221.772,26.842 L213.601,26.842 C212.845,26.842 212.521,26.374 212.521,25.510 C212.521,24.754 212.845,24.322 213.601,24.322 L214.537,24.322 C215.293,24.322 215.617,23.998 215.617,23.242 L215.581,9.924 C215.581,9.168 215.905,8.844 216.661,8.844 L217.309,8.844 C218.065,8.844 218.389,9.168 218.389,9.924 L218.389,10.644 C218.389,10.896 218.461,11.004 218.533,11.004 C218.605,11.004 218.677,10.896 218.713,10.824 C219.217,9.744 220.944,8.700 223.104,8.700 L223.860,8.700 C224.616,8.700 224.940,9.024 224.940,9.780 L224.940,10.428 C224.940,11.184 224.616,11.508 223.860,11.508 ZM200.708,63.842 L200.060,63.842 C199.304,63.842 198.981,63.518 198.981,62.762 L198.981,50.847 C198.981,50.847 198.981,48.652 196.785,48.652 L194.265,48.652 C192.069,48.652 192.069,50.847 192.069,50.847 L192.069,62.762 C192.069,63.518 191.745,63.842 190.989,63.842 L190.342,63.842 C189.586,63.842 189.262,63.518 189.262,62.762 L189.262,50.488 C189.262,50.488 189.226,49.120 190.306,48.616 C190.378,48.580 190.486,48.508 190.486,48.436 C190.486,48.364 190.378,48.292 190.126,48.292 L188.146,48.292 C187.390,48.292 187.066,47.968 187.066,47.212 L187.066,46.924 C187.066,46.168 187.390,45.844 188.146,45.844 L196.785,45.844 C201.788,45.844 201.788,50.847 201.788,50.847 L201.788,62.762 C201.788,63.518 201.464,63.842 200.708,63.842 ZM199.416,26.842 L197.940,26.842 C193.477,26.842 192.937,22.882 192.937,22.018 L192.937,12.444 C192.937,11.688 192.613,11.364 191.857,11.364 L190.813,11.364 C190.057,11.364 189.733,11.040 189.733,10.284 L189.733,9.744 C189.733,8.988 190.057,8.664 190.813,8.664 L191.857,8.664 C192.613,8.664 192.937,8.340 192.937,7.584 L192.937,3.805 C192.937,3.049 193.297,2.725 194.053,2.725 L194.773,2.725 C195.529,2.725 195.852,3.049 195.852,3.805 L195.852,7.584 C195.852,8.340 196.105,8.664 196.860,8.664 L199.380,8.664 C200.136,8.664 200.460,8.988 200.460,9.744 L200.460,10.284 C200.460,11.040 200.136,11.364 199.380,11.364 L196.824,11.364 C196.069,11.364 195.745,11.688 195.745,12.444 L195.745,21.947 C195.781,22.414 196.069,24.034 197.940,24.034 L199.416,24.034 C200.172,24.034 200.496,24.358 200.496,25.114 L200.496,25.762 C200.496,26.518 200.172,26.842 199.416,26.842 ZM172.323,26.986 C169.515,26.986 166.348,25.258 166.348,21.551 L166.348,21.371 C166.348,20.615 166.672,20.291 167.428,20.255 L168.004,20.255 C168.795,20.255 169.083,20.651 169.083,21.299 L169.083,21.658 C169.083,23.242 170.883,24.286 172.215,24.286 C173.475,24.286 175.131,23.638 175.131,22.199 C175.131,18.707 166.780,18.815 166.780,13.740 C166.780,10.500 169.191,8.592 172.215,8.592 C175.023,8.592 177.326,10.320 177.326,13.308 L177.326,13.488 C177.326,14.244 177.002,14.567 176.247,14.603 L175.671,14.603 C174.879,14.603 174.591,14.207 174.591,13.560 L174.591,13.200 C174.591,12.336 173.439,11.328 172.107,11.328 C170.847,11.328 169.767,12.120 169.767,13.560 C169.767,16.619 177.902,16.331 177.902,22.199 C177.902,25.222 174.987,26.986 172.323,26.986 ZM176.088,45.844 C176.844,45.844 177.168,46.168 177.168,46.924 L177.168,47.212 C177.168,47.968 176.844,48.292 176.088,48.292 L174.108,48.292 C173.856,48.292 173.748,48.364 173.748,48.436 C173.748,48.508 173.856,48.580 173.928,48.616 C175.008,49.120 174.972,50.488 174.972,50.488 L175.008,66.182 C175.008,66.974 174.504,71.041 170.004,71.041 L165.361,71.041 C164.605,71.041 164.281,70.717 164.281,69.961 L164.281,69.313 C164.281,68.557 164.605,68.233 165.361,68.233 L170.004,68.233 C171.876,68.233 172.200,66.614 172.200,66.038 L172.200,60.602 C172.200,60.350 172.128,60.242 172.056,60.242 C171.984,60.242 171.912,60.350 171.876,60.422 C171.372,61.502 169.645,62.546 167.485,62.546 C162.481,62.546 162.481,57.543 162.481,57.543 L162.481,50.847 C162.481,50.847 162.481,45.844 167.485,45.844 L176.088,45.844 ZM165.289,50.847 L165.289,57.543 C165.289,57.543 165.289,59.738 168.565,59.738 C170.364,59.738 172.200,58.659 172.200,56.463 L172.164,50.847 C172.164,49.696 171.264,48.652 169.968,48.652 L167.485,48.652 C165.289,48.652 165.289,50.847 165.289,50.847 ZM154.538,26.842 L146.619,26.842 C141.616,26.842 141.616,21.839 141.616,21.839 L141.652,9.888 C141.652,9.132 141.976,8.808 142.732,8.808 L143.380,8.808 C144.135,8.808 144.459,9.132 144.459,9.888 L144.423,21.839 C144.423,21.839 144.423,24.034 146.619,24.034 L149.139,24.034 C151.227,24.034 151.335,22.162 151.335,21.983 L151.335,9.888 C151.335,9.132 151.659,8.808 152.414,8.808 L153.062,8.808 C153.818,8.808 154.142,9.132 154.142,9.888 L154.142,20.795 C154.142,22.630 153.458,23.674 152.378,24.178 C152.306,24.214 152.198,24.286 152.198,24.358 C152.198,24.430 152.306,24.502 152.558,24.502 L154.538,24.502 C155.294,24.502 155.618,24.826 155.618,25.582 L155.618,25.762 C155.618,26.518 155.294,26.842 154.538,26.842 ZM124.396,63.986 C121.589,63.986 118.421,62.258 118.421,58.550 L118.421,58.371 C118.421,57.615 118.745,57.291 119.501,57.255 L120.077,57.255 C120.869,57.255 121.157,57.651 121.157,58.299 L121.157,58.659 C121.157,60.242 122.956,61.286 124.288,61.286 C125.548,61.286 127.204,60.638 127.204,59.198 C127.204,55.707 118.853,55.815 118.853,50.740 C118.853,47.500 121.265,45.592 124.288,45.592 C127.096,45.592 129.400,47.320 129.400,50.308 L129.400,50.488 C129.400,51.243 129.076,51.567 128.320,51.603 L127.744,51.603 C126.952,51.603 126.664,51.207 126.664,50.560 L126.664,50.200 C126.664,49.336 125.512,48.328 124.180,48.328 C122.920,48.328 121.841,49.120 121.841,50.560 C121.841,53.619 129.975,53.331 129.975,59.198 C129.975,62.222 127.060,63.986 124.396,63.986 ZM128.687,26.842 L128.039,26.842 C127.283,26.842 126.959,26.518 126.959,25.762 L126.959,25.042 C126.959,24.790 126.887,24.682 126.815,24.682 C126.743,24.682 126.671,24.790 126.635,24.862 C126.131,25.942 124.403,26.986 122.244,26.986 C117.240,26.986 117.240,21.983 117.240,21.983 L117.240,13.704 C117.240,13.704 117.240,8.700 122.244,8.700 C124.403,8.700 126.131,9.744 126.635,10.824 C126.671,10.896 126.743,11.004 126.815,11.004 C126.887,11.004 126.959,10.896 126.959,10.644 L126.959,2.005 C126.959,1.249 127.283,0.925 128.039,0.925 L128.687,0.925 C129.443,0.925 129.767,1.249 129.767,2.005 L129.767,25.762 C129.767,26.518 129.443,26.842 128.687,26.842 ZM126.959,14.783 C126.959,12.588 125.123,11.508 123.324,11.508 C120.048,11.508 120.048,13.704 120.048,13.704 L120.048,21.983 C120.048,21.983 120.048,24.178 123.324,24.178 C125.123,24.178 126.959,23.098 126.959,20.903 L126.959,14.783 ZM103.987,56.391 L98.228,56.391 C97.472,56.391 97.148,56.715 97.148,57.471 L97.148,58.875 C97.148,58.875 97.148,61.070 99.344,61.070 L105.427,61.070 C106.183,61.070 106.507,61.394 106.507,62.150 L106.507,62.762 C106.507,63.518 106.183,63.842 105.427,63.842 L99.344,63.842 C94.341,63.842 94.341,58.838 94.341,58.838 L94.341,50.847 C94.341,50.847 94.341,45.844 99.344,45.844 L102.224,45.844 C107.227,45.844 107.227,50.847 107.227,50.847 L107.227,53.151 C107.227,55.419 106.255,56.391 103.987,56.391 ZM104.419,50.811 C104.419,50.811 104.419,48.616 102.224,48.616 L99.344,48.616 C97.148,48.616 97.148,50.811 97.148,50.811 L97.148,52.683 C97.148,53.439 97.472,53.763 98.228,53.763 L103.339,53.763 C104.095,53.763 104.419,53.439 104.419,52.683 L104.419,50.811 ZM104.794,26.842 L104.146,26.842 C103.390,26.842 103.066,26.518 103.066,25.762 L103.066,13.848 C103.066,13.848 103.066,11.652 100.870,11.652 L98.350,11.652 C96.155,11.652 96.155,13.848 96.155,13.848 L96.155,25.762 C96.155,26.518 95.831,26.842 95.075,26.842 L94.427,26.842 C93.671,26.842 93.347,26.518 93.347,25.762 L93.347,13.488 C93.347,13.488 93.311,12.120 94.391,11.616 C94.463,11.580 94.571,11.508 94.571,11.436 C94.571,11.364 94.463,11.292 94.211,11.292 L92.231,11.292 C91.475,11.292 91.151,10.968 91.151,10.212 L91.151,9.924 C91.151,9.168 91.475,8.844 92.231,8.844 L100.870,8.844 C105.873,8.844 105.873,13.848 105.873,13.848 L105.873,25.762 C105.873,26.518 105.549,26.842 104.794,26.842 ZM75.681,63.842 L70.030,63.842 C69.346,63.842 69.058,63.554 69.058,62.870 L69.058,39.617 C69.058,38.933 69.346,38.645 70.030,38.645 L75.681,38.645 C78.741,38.645 82.988,39.905 82.988,46.168 L82.988,56.319 C82.988,62.582 78.741,63.842 75.681,63.842 ZM80.288,45.844 C80.288,43.252 78.885,41.309 75.429,41.309 L72.909,41.309 C72.082,41.309 71.722,41.669 71.722,42.497 L71.722,59.990 C71.722,60.818 72.082,61.178 72.909,61.178 L75.429,61.178 C78.885,61.178 80.288,59.234 80.288,56.643 L80.288,45.844 ZM78.057,24.322 L80.000,24.322 C80.756,24.322 81.080,24.754 81.080,25.618 C81.080,26.374 80.756,26.842 80.000,26.842 L71.110,26.842 C70.354,26.842 70.030,26.374 70.030,25.510 C70.030,24.754 70.354,24.322 71.110,24.322 L73.017,24.322 C73.773,24.322 74.097,23.998 74.097,23.242 L74.097,5.245 C74.097,4.489 73.773,4.165 73.017,4.165 L71.110,4.165 C70.354,4.165 70.030,3.733 70.030,2.977 C70.030,2.113 70.354,1.645 71.110,1.645 L80.000,1.645 C80.756,1.645 81.080,2.113 81.080,2.977 C81.080,3.733 80.756,4.165 80.000,4.165 L78.057,4.165 C77.301,4.165 76.977,4.489 76.977,5.245 L76.977,23.242 C76.977,23.998 77.301,24.322 78.057,24.322 ZM53.702,30.801 C53.134,33.150 52.770,35.337 51.906,37.331 C48.657,44.826 43.430,49.353 35.801,52.486 C34.285,53.109 32.537,53.273 30.832,53.685 C30.016,53.881 29.118,53.742 28.317,53.924 C27.593,54.089 25.378,53.939 24.785,53.804 C23.827,53.587 22.982,53.736 22.091,53.505 C20.039,52.971 18.135,52.466 16.403,51.708 C10.349,49.055 5.163,44.307 2.514,38.289 C1.955,37.021 1.597,35.806 1.137,34.395 C0.735,33.165 0.566,31.712 0.238,30.322 C0.199,29.643 0.159,28.964 0.119,28.285 C-0.089,27.318 -0.026,25.653 0.179,24.751 C0.218,24.212 0.258,23.672 0.298,23.133 C0.711,21.428 0.873,19.678 1.496,18.161 C4.631,10.526 9.148,5.300 16.643,2.047 C18.429,1.272 20.381,0.890 22.450,0.370 C23.228,0.270 24.007,0.170 24.785,0.070 C25.079,0.004 25.474,0.141 25.683,0.010 C33.017,-0.134 38.109,1.898 42.327,4.863 C46.618,7.880 49.720,11.643 51.906,16.784 C52.475,18.123 52.911,19.627 53.343,21.157 C53.502,22.135 53.662,23.113 53.822,24.092 C53.822,24.312 53.822,24.531 53.822,24.751 C54.017,25.653 54.099,27.320 53.881,28.285 C53.690,29.133 53.897,29.993 53.702,30.801 ZM29.392,46.590 C29.664,46.968 30.186,48.051 30.648,48.145 C30.977,47.944 31.500,48.020 31.904,47.906 C32.568,47.719 33.340,47.527 33.937,47.248 C33.599,46.906 33.083,46.752 32.681,46.471 C32.048,46.028 31.450,45.505 30.827,45.036 C30.608,44.796 30.389,44.557 30.169,44.318 C30.004,44.193 29.814,44.121 29.691,43.959 C29.052,43.114 28.269,42.380 27.658,41.507 C27.303,41.001 27.076,40.322 26.641,39.893 C27.104,42.713 28.044,44.716 29.392,46.590 ZM19.824,47.188 C20.232,47.235 20.564,47.436 20.900,47.547 C21.678,47.727 22.455,47.906 23.233,48.085 C23.233,48.066 23.233,48.046 23.233,48.026 C22.942,47.724 22.839,47.282 22.635,46.889 C21.768,45.221 21.306,43.359 20.781,41.268 C20.701,40.531 20.621,39.793 20.542,39.056 C20.469,38.732 20.629,38.273 20.482,38.039 C20.387,38.747 20.022,39.464 19.824,40.132 C19.335,41.785 19.235,45.563 19.824,47.188 ZM11.811,41.926 C12.349,42.404 12.887,42.883 13.425,43.361 C13.425,43.082 13.425,42.803 13.425,42.524 C13.525,41.687 13.625,40.850 13.724,40.012 C14.147,38.371 14.518,36.786 15.160,35.408 C15.322,35.060 16.095,33.507 16.057,33.375 C15.519,33.853 14.980,34.331 14.442,34.810 C13.122,36.552 11.508,38.470 10.914,40.909 C11.278,41.152 11.548,41.577 11.811,41.926 ZM6.668,32.418 C6.855,33.082 7.047,33.854 7.326,34.451 C7.841,33.940 8.157,33.130 8.582,32.537 C9.730,30.938 11.223,29.561 12.827,28.411 C13.368,28.023 13.939,27.434 14.621,27.215 C14.621,27.195 14.621,27.175 14.621,27.155 C14.582,27.155 14.542,27.155 14.502,27.155 C14.293,27.280 14.002,27.200 13.724,27.275 C13.155,27.428 12.492,27.545 11.930,27.753 C10.392,28.324 9.128,29.039 7.924,29.906 C7.552,30.174 6.520,30.700 6.429,31.162 C6.630,31.491 6.554,32.014 6.668,32.418 ZM9.538,19.920 C8.877,20.063 8.094,20.168 7.386,20.219 C7.125,21.332 6.697,22.472 6.429,23.687 C6.449,23.687 6.469,23.687 6.489,23.687 C6.790,23.396 7.232,23.293 7.625,23.089 C9.293,22.222 11.155,21.761 13.246,21.235 C13.984,21.155 14.721,21.076 15.459,20.996 C15.782,20.923 16.241,21.083 16.475,20.936 C15.771,20.851 15.046,20.476 14.382,20.278 C13.274,19.948 11.927,19.888 10.615,19.860 C10.366,20.012 9.879,19.846 9.538,19.920 ZM13.605,11.428 C13.071,12.223 11.484,13.020 11.153,13.940 C11.412,13.940 11.671,13.940 11.930,13.940 C12.274,14.140 12.871,13.960 13.306,14.059 C14.003,14.179 14.701,14.298 15.399,14.418 C16.670,14.776 17.953,15.112 19.106,15.614 C19.784,15.953 20.462,16.292 21.140,16.631 C21.140,16.611 21.140,16.591 21.140,16.571 C20.421,16.073 19.988,15.129 19.286,14.597 C17.747,13.434 15.733,11.947 13.605,11.428 ZM25.385,9.455 C24.826,8.567 24.078,7.782 23.532,6.883 C23.472,6.883 23.412,6.883 23.352,6.883 C23.023,7.085 22.500,7.009 22.096,7.122 C21.432,7.310 20.660,7.501 20.063,7.780 C20.555,8.276 21.611,8.780 22.216,9.215 C23.757,10.324 25.067,11.839 26.163,13.401 C26.533,13.929 27.086,14.471 27.299,15.136 C27.319,15.136 27.339,15.136 27.359,15.136 C26.992,12.930 26.384,11.037 25.385,9.455 ZM27.000,21.000 C23.686,21.000 21.000,23.686 21.000,27.000 C21.000,30.314 23.686,33.000 27.000,33.000 C30.314,33.000 33.000,30.314 33.000,27.000 C33.000,23.686 30.314,21.000 27.000,21.000 ZM34.176,7.840 C33.768,7.794 33.436,7.592 33.100,7.481 C32.322,7.302 31.545,7.122 30.767,6.943 C31.086,7.541 31.405,8.139 31.724,8.737 C32.283,10.002 32.652,11.376 33.040,12.803 C33.311,13.804 33.220,14.915 33.458,15.973 C33.531,16.296 33.371,16.756 33.518,16.989 C33.613,16.282 33.978,15.565 34.176,14.896 C34.665,13.243 34.765,9.465 34.176,7.840 ZM32.860,38.398 C34.155,40.399 37.753,42.962 40.395,43.600 C40.929,42.805 42.516,42.009 42.847,41.089 C42.508,41.089 42.169,41.089 41.830,41.089 C41.504,40.898 40.926,41.065 40.515,40.969 C39.678,40.810 38.840,40.650 38.003,40.491 C36.839,40.135 35.675,39.769 34.595,39.295 C34.022,39.044 33.471,38.602 32.860,38.398 ZM37.525,34.092 C38.040,34.158 38.506,34.423 38.960,34.571 C39.737,34.730 40.515,34.890 41.292,35.049 C43.030,35.449 45.005,34.918 46.614,34.810 C46.817,33.989 47.077,33.146 47.332,32.238 C47.400,31.998 47.600,31.552 47.511,31.341 C47.210,31.632 46.768,31.735 46.375,31.939 C44.707,32.807 42.845,33.268 40.754,33.793 C40.017,33.873 39.279,33.953 38.541,34.032 C38.218,34.105 37.759,33.945 37.525,34.092 ZM40.575,11.667 C40.636,14.396 39.912,17.239 39.080,19.202 C38.681,20.019 38.282,20.837 37.884,21.654 C37.904,21.654 37.923,21.654 37.943,21.654 C38.441,20.936 39.385,20.503 39.917,19.800 C41.081,18.261 42.568,16.248 43.086,14.119 C42.291,13.585 41.495,11.998 40.575,11.667 ZM46.614,20.577 C46.366,21.360 45.683,21.994 45.239,22.611 C44.075,24.229 42.689,25.529 41.053,26.677 C40.526,27.047 39.984,27.601 39.319,27.813 C39.319,27.833 39.319,27.853 39.319,27.873 C39.359,27.873 39.399,27.873 39.438,27.873 C39.647,27.749 39.937,27.825 40.216,27.753 C40.745,27.617 41.362,27.527 41.890,27.335 C43.501,26.748 44.827,26.030 46.076,25.122 C46.443,24.856 47.482,24.261 47.571,23.807 C47.134,23.084 47.239,21.079 46.614,20.577 ZM27.000,29.000 C25.895,29.000 25.000,28.105 25.000,27.000 C25.000,25.895 25.895,25.000 27.000,25.000 C28.105,25.000 29.000,25.895 29.000,27.000 C29.000,28.105 28.105,29.000 27.000,29.000 ZM147.148,42.677 C145.636,42.677 144.413,41.453 144.413,39.941 C144.413,38.429 145.636,37.169 147.148,37.169 C148.660,37.169 149.920,38.429 149.920,39.941 C149.920,41.453 148.660,42.677 147.148,42.677 ZM143.261,45.844 L148.048,45.844 C148.804,45.844 149.128,46.168 149.128,46.924 L149.128,62.762 C149.128,63.518 148.804,63.842 148.048,63.842 L147.328,63.842 C146.572,63.842 146.248,63.518 146.248,62.762 L146.248,49.444 C146.248,48.688 145.924,48.364 145.168,48.364 L143.261,48.364 C142.505,48.364 142.181,47.932 142.181,47.176 C142.181,46.312 142.505,45.844 143.261,45.844 Z" class="cls-1"/>
</svg>
