<svg xmlns="http://www.w3.org/2000/svg" xmlns:xlink="http://www.w3.org/1999/xlink" preserveAspectRatio="xMidYMid" width="21.09" height="21.469" viewBox="0 0 21.09 21.469">
  <defs>
    <style>
      .cls-1 {
        fill: #62767f;
        fill-rule: evenodd;
      }
    </style>
  </defs>
  <path d="M12.084,18.000 C10.302,18.000 8.646,17.476 7.248,16.583 L2.373,21.458 L-0.014,19.070 L4.792,14.264 C3.719,12.782 3.080,10.966 3.080,8.996 C3.080,4.024 7.111,-0.007 12.084,-0.007 C17.056,-0.007 21.087,4.024 21.087,8.996 C21.087,13.969 17.056,18.000 12.084,18.000 ZM12.049,3.064 C8.779,3.064 6.128,5.715 6.128,8.985 C6.128,12.255 8.779,14.906 12.049,14.906 C15.319,14.906 17.970,12.255 17.970,8.985 C17.970,5.715 15.319,3.064 12.049,3.064 Z" class="cls-1"/>
</svg>
